<?xml version="1.0" encoding="UTF-8" standalone="no"?>
<svg
   xmlns:dc="http://purl.org/dc/elements/1.1/"
   xmlns:cc="http://creativecommons.org/ns#"
   xmlns:rdf="http://www.w3.org/1999/02/22-rdf-syntax-ns#"
   xmlns:svg="http://www.w3.org/2000/svg"
   xmlns="http://www.w3.org/2000/svg"
   xmlns:sodipodi="http://sodipodi.sourceforge.net/DTD/sodipodi-0.dtd"
   xmlns:inkscape="http://www.inkscape.org/namespaces/inkscape"
   version="1.1"
   id="svg2"
   xml:space="preserve"
   width="2076.3999"
   height="669.05334"
   viewBox="0 0 2076.3999 669.05334"
   sodipodi:docname="78737_DevOps Dojo_FLAT_DT_03.eps"><metadata
     id="metadata8"><rdf:RDF><cc:Work
         rdf:about=""><dc:format>image/svg+xml</dc:format><dc:type
           rdf:resource="http://purl.org/dc/dcmitype/StillImage" /></cc:Work></rdf:RDF></metadata><defs
     id="defs6" /><sodipodi:namedview
     pagecolor="#ffffff"
     bordercolor="#666666"
     borderopacity="1"
     objecttolerance="10"
     gridtolerance="10"
     guidetolerance="10"
     inkscape:pageopacity="0"
     inkscape:pageshadow="2"
     inkscape:window-width="640"
     inkscape:window-height="480"
     id="namedview4" /><g
     id="g10"
     inkscape:groupmode="layer"
     inkscape:label="ink_ext_XXXXXX"
     transform="matrix(1.3333333,0,0,-1.3333333,0,669.05333)"><g
       id="g12"
       transform="scale(0.1)"><path
         d="m 6883.3,2858.2 c 75.11,0 143.87,12.05 206.2,35.99 62.37,23.95 115.47,58.32 159.48,103.13 43.92,44.74 78.29,97.48 103.1,158.23 24.74,60.75 37.16,128.7 37.16,203.85 v 4.77 c 0,73.53 -12.42,141.47 -37.16,203.84 -24.81,62.29 -59.18,115.84 -103.1,160.66 -44.01,44.73 -97.11,79.42 -159.48,104.26 -62.33,24.75 -131.09,37.22 -206.2,37.22 H 6597.97 V 2858.2 Z m -654.61,1345.22 h 654.61 c 131.06,0 251.38,-21.2 360.86,-63.59 109.48,-42.39 203.85,-101.1 282.96,-176.19 79.12,-75.22 140.27,-163.46 183.42,-264.99 43.15,-101.51 64.75,-211.45 64.75,-329.71 v -4.77 c 0,-118.34 -21.6,-228.61 -64.75,-330.93 -43.15,-102.33 -104.3,-190.98 -183.42,-266.14 -79.11,-75.14 -173.48,-134.27 -282.96,-177.47 -109.48,-43.11 -229.8,-64.71 -360.86,-64.71 h -654.61 v 1678.5"
         style="fill:#100f0d;fill-opacity:1;fill-rule:nonzero;stroke:none"
         id="path14" /><path
         d="m 8909.47,3268.23 c -11.2,81.54 -40,147.46 -86.31,197.86 -46.39,50.31 -107.91,75.48 -184.63,75.48 -76.76,0 -138.73,-24.76 -185.84,-74.27 -47.17,-49.59 -77.95,-115.91 -92.35,-199.07 z m -234.99,-772.11 c -95.93,0 -185.04,16.02 -267.35,47.97 -82.37,31.95 -153.48,77.49 -213.42,136.71 -59.94,59.13 -106.69,129.02 -140.27,209.83 -33.57,80.65 -50.35,170.61 -50.35,269.69 v 4.86 c 0,91.07 15.57,177.39 46.75,258.93 31.18,81.53 74.71,152.64 130.68,213.39 55.93,60.74 122.67,108.72 200.2,143.9 77.55,35.11 163.44,52.75 257.81,52.75 107.06,0 199.8,-19.17 278.14,-57.6 78.3,-38.34 143.47,-89.87 195.4,-154.59 51.92,-64.78 90.31,-139.12 115.11,-223.01 24.74,-83.97 37.16,-171.49 37.16,-262.57 0,-14.41 -0.4,-29.61 -1.21,-45.54 -0.81,-16.01 -2.02,-32.84 -3.6,-50.41 h -894.38 c 17.59,-83.15 53.96,-145.84 109.12,-188.22 55.14,-42.39 123.49,-63.5 204.98,-63.5 60.76,0 115.11,10.35 163.09,31.14 47.96,20.79 97.48,54.36 148.67,100.71 l 208.58,-184.59 c -60.75,-75.23 -134.28,-133.96 -220.59,-176.27 -86.31,-42.39 -187.87,-63.58 -304.52,-63.58"
         style="fill:#100f0d;fill-opacity:1;fill-rule:nonzero;stroke:none"
         id="path16" /><path
         d="m 9420.18,3810.12 h 386.05 l 287.77,-860.76 290.1,860.76 h 378.8 L 10257,2515.29 h -330.9 l -505.92,1294.83"
         style="fill:#100f0d;fill-opacity:1;fill-rule:nonzero;stroke:none"
         id="path18" /><path
         d="m 11832.4,2836.68 c 73.5,0 141.4,13.51 203.8,40.69 62.3,27.18 115.5,64.79 159.4,112.76 44,47.96 78.3,103.45 103.2,166.63 24.7,63.1 37.1,130.64 37.1,202.64 v 4.77 c 0,71.91 -12.4,139.86 -37.1,203.84 -24.9,63.91 -60,119.88 -105.6,167.85 -45.5,47.89 -99.4,85.91 -161.8,113.9 -62.3,27.9 -130.3,41.89 -203.8,41.89 -75.2,0 -143.5,-13.58 -205,-40.77 -61.6,-27.17 -114.3,-64.7 -158.3,-112.67 -44,-47.98 -78.4,-103.54 -103.1,-166.64 -24.8,-63.18 -37.2,-130.72 -37.2,-202.63 v -4.77 c 0,-71.92 12.4,-139.94 37.2,-203.85 24.7,-63.9 59.9,-119.89 105.5,-167.84 45.6,-47.98 99.1,-85.91 160.7,-113.9 61.5,-27.99 129.8,-41.9 205,-41.9 z m -4.8,-340.56 c -129.5,0 -248.6,22.82 -357.3,68.36 -108.7,45.54 -202.6,107.1 -281.8,184.67 -79.1,77.49 -140.6,168.58 -184.6,273.33 -44,104.67 -65.9,217.04 -65.9,336.92 v 4.77 c 0,119.88 22.3,232.15 67.1,336.91 44.8,104.68 106.7,196.57 185.9,275.76 79.1,79.11 173.4,141.47 282.9,187.02 109.5,45.54 229,68.35 358.5,68.35 129.5,0 248.5,-22.81 357.2,-68.35 108.7,-45.55 202.7,-107.1 281.8,-184.68 79.1,-77.49 140.7,-168.65 184.6,-273.33 44,-104.76 65.9,-217.03 65.9,-336.91 v -4.77 c 0,-119.88 -22.4,-232.24 -67.1,-336.91 -44.8,-104.68 -106.7,-196.65 -185.8,-275.76 -79.2,-79.11 -173.5,-141.48 -283,-187.02 -109.5,-45.54 -229,-68.36 -358.4,-68.36"
         style="fill:#100f0d;fill-opacity:1;fill-rule:nonzero;stroke:none"
         id="path20" /><path
         d="m 13683.5,2810.22 c 43.1,0 83.5,8.42 121.1,25.24 37.5,16.75 70.7,40.77 99.5,71.92 28.8,31.14 51.5,68.35 68.3,111.47 16.8,43.18 25.2,91.97 25.2,146.33 v 4.77 c 0,52.74 -8.4,101.03 -25.2,145.03 -16.8,44.01 -39.5,81.54 -68.3,112.69 -28.8,31.23 -62,55.17 -99.5,71.99 -37.6,16.74 -78,25.16 -121.1,25.16 -43.2,0 -83.6,-8.42 -121.1,-25.16 -37.6,-16.82 -70.4,-40.76 -98.3,-71.99 -28,-31.15 -50.4,-68.68 -67.2,-112.69 -16.7,-44 -25.2,-92.29 -25.2,-145.03 v -4.77 c 0,-52.83 8.5,-101.12 25.2,-145.13 16.8,-44 39.2,-81.53 67.2,-112.67 27.9,-31.15 60.7,-55.17 98.3,-71.92 37.5,-16.82 77.9,-25.24 121.1,-25.24 z m -671.4,999.9 h 364.5 v -184.59 c 44.7,60.75 98.6,110.66 161.8,149.89 63.1,39.14 142.7,58.73 238.6,58.73 75.1,0 147.8,-14.4 218.2,-43.21 70.3,-28.71 132.7,-71.5 187,-128.29 54.4,-56.7 97.9,-126.27 130.7,-208.53 32.7,-82.43 49.2,-177.07 49.2,-284.17 v -4.77 c 0,-107.18 -16.5,-201.83 -49.2,-284.18 -32.8,-82.35 -75.9,-151.9 -129.5,-208.61 -53.5,-56.79 -115.5,-99.49 -185.8,-128.3 -70.4,-28.8 -143.9,-43.11 -220.6,-43.11 -97.5,0 -177.9,19.17 -241,57.52 -63.2,38.34 -116.3,83.07 -159.4,134.27 v -551.51 h -364.5 v 1668.86"
         style="fill:#100f0d;fill-opacity:1;fill-rule:nonzero;stroke:none"
         id="path22" /><path
         d="m 15081.4,2500.98 c -91.1,0 -184.3,15.54 -279.4,46.75 -95.1,31.15 -185.8,80.33 -272.1,147.47 l 155.8,239.76 c 70.4,-51.21 140.3,-89.54 209.8,-115.11 69.6,-25.56 134.7,-38.34 195.5,-38.34 52.7,0 91.5,8.74 116.3,26.37 24.7,17.56 37.1,40.77 37.1,69.49 v 4.84 c 0,19.18 -7.1,35.93 -21.5,50.32 -14.4,14.41 -34,26.77 -58.8,37.21 -24.8,10.36 -53.2,20.39 -85.1,29.93 -32,9.63 -65.6,19.99 -100.7,31.23 -44.8,12.77 -89.9,28.31 -135.5,46.75 -45.6,18.37 -86.7,42.31 -123.5,71.91 -36.8,29.53 -66.8,65.93 -89.9,109.13 -23.2,43.12 -34.8,95.85 -34.8,158.21 v 4.79 c 0,65.51 12.4,123.51 37.2,173.82 24.7,50.4 58.3,93.12 100.7,128.3 42.3,35.19 91.9,61.55 148.7,79.18 56.7,17.57 117.8,26.38 183.4,26.38 81.5,0 164.3,-13.18 248.2,-39.64 83.9,-26.37 161,-62.68 231.4,-109.03 l -139.1,-251.82 c -64,36.81 -126.3,65.92 -187,87.52 -60.8,21.61 -114.3,32.36 -160.7,32.36 -44.8,0 -78.3,-8.33 -100.7,-25.16 -22.4,-16.74 -33.6,-37.94 -33.6,-63.49 v -4.86 c 0,-17.55 7.2,-33.16 21.6,-46.75 14.4,-13.59 33.6,-26.37 57.6,-38.35 23.9,-11.96 51.5,-23.61 82.7,-34.78 31.2,-11.17 64.3,-22.41 99.5,-33.56 44.7,-14.41 90.3,-31.55 136.7,-51.54 46.3,-19.98 87.9,-44.33 124.6,-73.13 36.8,-28.79 67.2,-63.97 91.2,-105.48 23.9,-41.65 36,-91.97 36,-151.1 v -4.78 c 0,-71.99 -12.5,-133.95 -37.2,-185.88 -24.8,-51.94 -59.6,-94.64 -104.3,-128.21 -44.8,-33.58 -97.1,-58.81 -157.1,-75.56 -60,-16.82 -124.3,-25.15 -193,-25.15"
         style="fill:#100f0d;fill-opacity:1;fill-rule:nonzero;stroke:none"
         id="path24" /><path
         d="m 6883.26,724.129 c 75.14,0 143.9,12.062 206.28,36 62.27,23.941 115.42,58.32 159.44,103.133 43.91,44.738 78.29,97.468 103.13,158.218 24.75,60.76 37.13,128.71 37.13,203.86 v 4.77 c 0,73.53 -12.38,141.47 -37.13,203.84 -24.84,62.28 -59.22,115.84 -103.13,160.65 -44.02,44.73 -97.17,79.43 -159.44,104.27 -62.38,24.75 -131.14,37.21 -206.28,37.21 h -285.3 V 724.129 Z M 6228.69,2069.35 h 654.57 c 131.12,0 251.41,-21.19 360.93,-63.58 109.45,-42.39 203.78,-101.11 282.88,-176.19 79.2,-75.22 140.35,-163.47 183.47,-264.99 43.18,-101.52 64.71,-211.46 64.71,-329.71 v -4.77 c 0,-118.35 -21.53,-228.61 -64.71,-330.93 C 7667.42,796.852 7606.27,708.199 7527.07,633.039 7447.97,557.902 7353.64,498.77 7244.19,455.57 7134.67,412.461 7014.38,390.859 6883.26,390.859 H 6228.69 V 2069.35"
         style="fill:#ec1d27;fill-opacity:1;fill-rule:nonzero;stroke:none"
         id="path26" /><path
         d="m 8700.89,676.16 c 52.74,0 99.5,9.231 140.27,27.59 40.76,18.359 75.55,43.602 104.34,75.551 28.72,31.949 50.72,69.16 65.93,111.469 15.13,42.39 22.72,87.519 22.72,135.49 v 4.86 c 0,47.88 -8,93.09 -23.94,135.4 -16.01,42.39 -39.23,79.93 -69.55,112.76 -30.34,32.69 -66.34,58.73 -107.92,77.9 -41.58,19.17 -87.12,28.8 -136.62,28.8 -52.75,0 -99.49,-9.22 -140.27,-27.58 -40.77,-18.44 -75.56,-43.6 -104.34,-75.56 -28.81,-31.95 -50.73,-69.16 -65.93,-111.46 -15.21,-42.39 -22.82,-87.53 -22.82,-135.49 v -4.77 c 0,-47.979 8.01,-93.19 24.03,-135.499 15.94,-42.391 39.15,-80 69.49,-112.691 30.41,-32.828 66.01,-58.801 106.77,-77.969 40.69,-19.172 86.63,-28.801 137.84,-28.801 z m -4.77,-314.097 c -99.18,0 -191.07,17.226 -275.77,51.609 -84.77,34.297 -157.88,81.457 -219.37,141.48 -61.55,59.938 -109.92,130.239 -145.11,210.957 -35.19,80.743 -52.75,167.454 -52.75,260.151 v 4.86 c 0,92.61 17.56,179.41 52.75,260.14 35.19,80.65 83.96,151.43 146.24,212.18 62.37,60.74 135.9,108.72 220.59,143.9 84.79,35.11 177.49,52.75 278.19,52.75 99.09,0 190.98,-17.24 275.76,-51.54 84.68,-34.46 157.81,-81.53 219.38,-141.48 61.55,-59.93 109.92,-130.31 145.11,-211.04 35.11,-80.72 52.74,-167.44 52.74,-260.14 v -4.77 c 0,-92.788 -17.63,-179.499 -52.74,-260.241 -35.19,-80.719 -83.96,-151.418 -146.33,-212.168 -62.28,-60.75 -135.9,-108.719 -220.59,-143.91 -84.69,-35.11 -177.39,-52.738 -278.1,-52.738"
         style="fill:#ec1d27;fill-opacity:1;fill-rule:nonzero;stroke:none"
         id="path28" /><path
         d="m 9664.78,2141.26 h 383.62 V 1817.53 H 9664.78 Z M 9626.36,0 c -33.57,0 -61.96,1.19922 -85.09,3.64063 -23.22,2.33984 -47.57,5.98046 -73.13,10.74997 V 299.781 c 28.8,-4.859 54.35,-7.211 76.69,-7.211 38.41,0 69.57,11.172 93.59,33.582 23.94,22.411 35.91,60.75 35.91,115.02 V 1676.06 h 364.47 V 412.461 c 0,-142.289 -34.7,-246.559 -104.32,-312.9688 C 9865,33.2422 9762.27,0 9626.36,0"
         style="fill:#ec1d27;fill-opacity:1;fill-rule:nonzero;stroke:none"
         id="path30" /><path
         d="m 11017.1,676.16 c 52.8,0 99.5,9.231 140.3,27.59 40.8,18.359 75.5,43.602 104.3,75.551 28.8,31.949 50.8,69.16 66,111.469 15.1,42.39 22.7,87.519 22.7,135.49 v 4.86 c 0,47.88 -8,93.09 -23.9,135.4 -16.1,42.39 -39.3,79.93 -69.6,112.76 -30.4,32.69 -66.4,58.73 -107.9,77.9 -41.6,19.17 -87.1,28.8 -136.6,28.8 -52.8,0 -99.5,-9.22 -140.3,-27.58 -40.8,-18.44 -75.6,-43.6 -104.4,-75.56 -28.8,-31.95 -50.7,-69.16 -65.9,-111.46 -15.2,-42.39 -22.8,-87.53 -22.8,-135.49 v -4.77 c 0,-47.979 8,-93.19 24,-135.499 16,-42.391 39.2,-80 69.5,-112.691 30.4,-32.828 66,-58.801 106.8,-77.969 40.7,-19.172 86.6,-28.801 137.8,-28.801 z m -4.7,-314.097 c -99.2,0 -191.1,17.226 -275.8,51.609 -84.8,34.297 -157.9,81.457 -219.4,141.48 -61.5,59.938 -109.9,130.239 -145.1,210.957 -35.2,80.743 -52.7,167.454 -52.7,260.151 v 4.86 c 0,92.61 17.5,179.41 52.7,260.14 35.2,80.65 84,151.43 146.3,212.18 62.3,60.74 135.8,108.72 220.5,143.9 84.8,35.11 177.5,52.75 278.2,52.75 99.1,0 191,-17.24 275.8,-51.54 84.7,-34.46 157.8,-81.53 219.4,-141.48 61.5,-59.93 109.9,-130.31 145.1,-211.04 35.1,-80.72 52.7,-167.44 52.7,-260.14 v -4.77 c 0,-92.788 -17.6,-179.499 -52.7,-260.241 -35.2,-80.719 -84,-151.418 -146.4,-212.168 -62.2,-60.75 -135.8,-108.719 -220.5,-143.91 -84.7,-35.11 -177.4,-52.738 -278.1,-52.738"
         style="fill:#ec1d27;fill-opacity:1;fill-rule:nonzero;stroke:none"
         id="path32" /><path
         d="m 5069.54,3313.02 c -99.24,-66.05 -192.7,-105.9 -264.24,-130.35 v 400.38 C 4441.84,3390.71 3680.62,3049.94 2660.56,3046.51 1622.93,3043.01 848.84,3390.35 484.672,3583.05 v -400.38 c -79.43,30.76 -177.981,77.48 -281.695,149.13 C 118.617,3390.07 51.5703,3450.52 0,3503.68 v -738.26 c 274.781,-76.7 645.527,-167.26 1089.46,-238.11 676.41,-107.95 1783.58,-211.74 3110.35,0 443.93,70.85 814.68,161.41 1089.46,238.11 v 738.26 c -49.91,-55.91 -121.96,-125.57 -219.73,-190.66"
         style="fill:#ec1d27;fill-opacity:1;fill-rule:nonzero;stroke:none"
         id="path34" /><path
         d="m 4440.3,2404.41 -508.35,-84.73 c -12.77,-144.25 -20.72,-288.11 -24.68,-430.64 H 2771.11 v 354.69 H 2487.35 V 1889.04 H 1300.78 c -3.99,141.57 -11.89,284.45 -24.58,427.75 l -508.048,87.62 c 0,0 -8.047,-154.5 -31.3,-402.71 H 0 V 1500.97 H 681.383 C 630.852,1105.47 553.461,626.492 437.094,161.492 h 741.526 c 66.5,417.41 120.7,914.358 124.99,1439.618 h 2600.95 c 4.48,-525.15 58.8,-1022.149 125.37,-1439.618 h 741.43 C 4655,626.492 4577.6,1105.47 4527.08,1500.97 h 681.38 v 500.73 h -736.85 c -23.25,248.21 -31.31,402.71 -31.31,402.71"
         style="fill:#ec1d27;fill-opacity:1;fill-rule:nonzero;stroke:none"
         id="path36" /><path
         d="m 1514.08,3999.2 c 0,-170.95 0,-341.89 0,-512.85 224.06,-86.97 596.14,-199.9 1067.34,-199.87 471.01,0.03 842.96,112.91 1066.99,199.87 V 3999.2 L 2581.24,3686.87 1514.08,3999.2"
         style="fill:#ec1d27;fill-opacity:1;fill-rule:nonzero;stroke:none"
         id="path38" /><path
         d="m 4067.01,4332.66 v -369.72 h 129.36 v 413.01 l 363.04,121.46 -1978.17,520.45 -1978.166,-520.45 1978.166,-661.88 1485.77,497.13"
         style="fill:#ec1d27;fill-opacity:1;fill-rule:nonzero;stroke:none"
         id="path40" /></g></g></svg>
