<?xml version="1.0" encoding="UTF-8" standalone="no"?>
<svg
   xmlns:dc="http://purl.org/dc/elements/1.1/"
   xmlns:cc="http://creativecommons.org/ns#"
   xmlns:rdf="http://www.w3.org/1999/02/22-rdf-syntax-ns#"
   xmlns:svg="http://www.w3.org/2000/svg"
   xmlns="http://www.w3.org/2000/svg"
   xmlns:sodipodi="http://sodipodi.sourceforge.net/DTD/sodipodi-0.dtd"
   xmlns:inkscape="http://www.inkscape.org/namespaces/inkscape"
   version="1.1"
   id="svg2"
   xml:space="preserve"
   width="1823.9733"
   height="789.88"
   viewBox="0 0 1823.9733 789.88"
   sodipodi:docname="78737_DevOps Dojo_FLAT_DT_01.eps"><metadata
     id="metadata8"><rdf:RDF><cc:Work
         rdf:about=""><dc:format>image/svg+xml</dc:format><dc:type
           rdf:resource="http://purl.org/dc/dcmitype/StillImage" /></cc:Work></rdf:RDF></metadata><defs
     id="defs6" /><sodipodi:namedview
     pagecolor="#ffffff"
     bordercolor="#666666"
     borderopacity="1"
     objecttolerance="10"
     gridtolerance="10"
     guidetolerance="10"
     inkscape:pageopacity="0"
     inkscape:pageshadow="2"
     inkscape:window-width="640"
     inkscape:window-height="480"
     id="namedview4" /><g
     id="g10"
     inkscape:groupmode="layer"
     inkscape:label="ink_ext_XXXXXX"
     transform="matrix(1.3333333,0,0,-1.3333333,0,789.88)"><g
       id="g12"
       transform="scale(0.1)"><path
         d="m 565.168,625.199 c 64.852,0 124.215,10.41 178.02,31.082 53.851,20.68 99.703,50.348 137.691,89.039 37.926,38.629 67.598,84.16 89.012,136.61 21.363,52.449 32.089,111.109 32.089,176 v 4.12 c 0,63.48 -10.726,122.14 -32.089,175.99 -21.414,53.77 -51.086,100.01 -89.012,138.7 -37.988,38.62 -83.84,68.58 -137.691,90.02 -53.805,21.37 -113.168,32.13 -178.02,32.13 H 318.816 V 625.199 Z M 0,1786.63 h 565.168 c 113.145,0 217.027,-18.3 311.551,-54.9 94.523,-36.6 176.001,-87.3 244.301,-152.11 68.31,-64.95 121.1,-141.14 158.35,-228.79 37.27,-87.65 55.91,-182.56 55.91,-284.66 v -4.12 c 0,-102.179 -18.64,-197.378 -55.91,-285.71 C 1242.12,687.992 1189.33,611.441 1121.02,546.559 1052.72,481.68 971.242,430.629 876.719,393.34 782.195,356.109 678.313,337.469 565.168,337.469 H 0 V 1786.63"
         style="fill:#100f0d;fill-opacity:1;fill-rule:nonzero;stroke:none"
         id="path14" /><path
         d="m 2314.49,979.219 c -9.67,70.391 -34.53,127.311 -74.51,170.821 -40.05,43.44 -93.17,65.17 -159.41,65.17 -66.28,0 -119.77,-21.37 -160.45,-64.12 -40.72,-42.81 -67.3,-100.08 -79.73,-171.871 z M 2111.61,312.602 c -82.82,0 -159.75,13.828 -230.82,41.418 -71.12,27.582 -132.51,66.902 -184.26,118.019 -51.75,51.051 -92.12,111.402 -121.1,181.172 -28.99,69.629 -43.48,147.289 -43.48,232.84 v 4.187 c 0,78.641 13.44,153.162 40.37,223.562 26.91,70.39 64.5,131.78 112.82,184.23 48.29,52.44 105.91,93.87 172.85,124.24 66.95,30.31 141.11,45.54 222.58,45.54 92.44,0 172.5,-16.55 240.14,-49.72 67.6,-33.11 123.86,-77.6 168.7,-133.47 44.83,-55.94 77.97,-120.12 99.38,-192.54 21.37,-72.5 32.09,-148.06 32.09,-226.701 0,-12.438 -0.35,-25.559 -1.05,-39.32 -0.7,-13.829 -1.74,-28.348 -3.11,-43.52 h -772.17 c 15.19,-71.789 46.58,-125.91 94.21,-162.5 47.6,-36.598 106.61,-54.828 176.97,-54.828 52.45,0 99.38,8.937 140.8,26.891 41.41,17.949 84.16,46.929 128.36,86.937 L 2564.97,519.68 c -52.45,-64.95 -115.93,-115.66 -190.45,-152.18 -74.51,-36.602 -162.2,-54.898 -262.91,-54.898"
         style="fill:#100f0d;fill-opacity:1;fill-rule:nonzero;stroke:none"
         id="path16" /><path
         d="m 2755.42,1447.06 h 333.3 l 248.43,-743.15 250.47,743.15 h 327.09 L 3477.91,329.148 h -285.69 l -436.8,1117.912"
         style="fill:#100f0d;fill-opacity:1;fill-rule:nonzero;stroke:none"
         id="path18" /><path
         d="m 4838.05,606.621 c 63.45,0 122.12,11.668 175.96,35.141 53.82,23.457 99.7,55.929 137.65,97.347 37.96,41.411 67.6,89.321 89.05,143.86 21.36,54.48 32.05,112.801 32.05,174.961 v 4.12 c 0,62.08 -10.69,120.75 -32.05,175.99 -21.45,55.17 -51.79,103.5 -91.1,144.92 -39.33,41.34 -85.9,74.16 -139.76,98.33 -53.8,24.09 -112.5,36.17 -175.95,36.17 -64.88,0 -123.9,-11.73 -177.01,-35.2 -53.15,-23.46 -98.68,-55.87 -136.64,-97.28 -37.95,-41.42 -67.64,-89.39 -89.02,-143.87 -21.4,-54.54 -32.08,-112.86 -32.08,-174.94 v -4.12 c 0,-62.089 10.68,-120.82 32.08,-175.999 21.38,-55.172 51.76,-103.512 91.11,-144.91 39.33,-41.422 85.56,-74.172 138.7,-98.34 53.11,-24.16 112.1,-36.18 177.01,-36.18 z m -4.15,-294.019 c -111.78,0 -214.61,19.699 -308.48,59.019 -93.86,39.309 -174.91,92.457 -243.25,159.438 -68.3,66.91 -121.45,145.55 -159.41,235.98 -37.95,90.383 -56.91,187.391 -56.91,290.891 v 4.12 c 0,103.5 19.3,200.43 57.96,290.87 38.62,90.38 92.12,169.71 160.45,238.08 68.3,68.31 149.74,122.15 244.27,161.48 94.52,39.31 197.71,59 309.52,59 111.78,0 214.59,-19.69 308.45,-59 93.83,-39.33 174.94,-92.48 243.24,-159.45 68.3,-66.9 121.46,-145.61 159.41,-235.99 37.96,-90.44 56.91,-187.38 56.91,-290.87 v -4.12 c 0,-103.499 -19.34,-200.511 -57.96,-290.878 -38.65,-90.383 -92.11,-169.793 -160.41,-238.082 -68.34,-68.301 -149.77,-122.16 -244.3,-161.469 -94.57,-39.32 -197.71,-59.019 -309.49,-59.019"
         style="fill:#100f0d;fill-opacity:1;fill-rule:nonzero;stroke:none"
         id="path20" /><path
         d="m 6436.21,583.781 c 37.26,0 72.11,7.27 104.55,21.797 32.4,14.461 61.07,35.203 85.94,62.09 24.83,26.883 44.48,59.012 58.97,96.23 14.5,37.293 21.75,79.411 21.75,126.34 v 4.121 c 0,45.539 -7.25,87.231 -21.75,125.221 -14.49,37.99 -34.14,70.4 -58.97,97.29 -24.87,26.96 -53.54,47.63 -85.94,62.16 -32.44,14.45 -67.29,21.71 -104.55,21.71 -37.26,0 -72.11,-7.26 -104.54,-21.71 -32.45,-14.53 -60.73,-35.2 -84.86,-62.16 -24.17,-26.89 -43.48,-59.3 -57.97,-97.29 -14.49,-37.99 -21.76,-79.682 -21.76,-125.221 v -4.121 c 0,-45.597 7.27,-87.297 21.76,-125.289 14.49,-37.988 33.8,-70.398 57.97,-97.281 24.13,-26.887 52.41,-47.629 84.86,-62.09 32.43,-14.527 67.28,-21.797 104.54,-21.797 z m -579.66,863.279 h 314.69 v -159.37 c 38.62,52.45 85.2,95.55 139.75,129.42 54.47,33.79 123.16,50.7 205.95,50.7 64.89,0 127.67,-12.43 188.39,-37.3 60.73,-24.79 114.58,-61.74 161.5,-110.76 46.91,-48.96 84.52,-109.02 112.83,-180.04 28.25,-71.17 42.43,-152.882 42.43,-245.351 v -4.121 c 0,-92.527 -14.18,-174.25 -42.43,-245.347 -28.31,-71.09 -65.57,-131.153 -111.81,-180.102 -46.24,-49.039 -99.74,-85.898 -160.43,-110.769 -60.75,-24.872 -124.2,-37.219 -190.48,-37.219 -84.19,0 -153.53,16.551 -208.05,49.648 -54.54,33.102 -100.39,71.719 -137.65,115.942 V 6.23047 H 5856.55 V 1447.06"
         style="fill:#100f0d;fill-opacity:1;fill-rule:nonzero;stroke:none"
         id="path22" /><path
         d="m 7643.13,316.801 c -78.67,0 -159.09,13.41 -241.18,40.347 -82.14,26.903 -160.43,69.372 -234.98,127.332 l 134.58,207 c 60.73,-44.21 121.1,-77.308 181.13,-99.378 60.06,-22.071 116.28,-33.114 168.73,-33.114 45.54,0 78.99,7.551 100.42,22.782 21.37,15.148 32.06,35.191 32.06,59.992 v 4.179 c 0,16.547 -6.18,31.02 -18.6,43.45 -12.44,12.429 -29.35,23.109 -50.75,32.121 -21.41,8.937 -45.88,17.597 -73.47,25.84 -27.62,8.308 -56.61,17.25 -86.94,26.957 -38.66,11.031 -77.63,24.441 -116.98,40.363 -39.33,15.859 -74.87,36.527 -106.61,62.09 -31.78,25.488 -57.66,56.918 -77.63,94.218 -20.05,37.23 -30.03,82.75 -30.03,136.6 v 4.13 c 0,56.56 10.68,106.63 32.08,150.07 21.37,43.51 50.36,80.39 86.96,110.77 36.55,30.37 79.34,53.14 128.36,68.37 48.96,15.16 101.75,22.77 158.36,22.77 70.4,0 141.81,-11.38 214.27,-34.22 72.45,-22.77 139.01,-54.13 199.77,-94.15 l -120.05,-217.4 c -55.25,31.77 -109.06,56.91 -161.5,75.56 -52.45,18.65 -98.68,27.94 -138.7,27.94 -38.66,0 -67.64,-7.19 -86.96,-21.72 -19.34,-14.46 -28.97,-32.76 -28.97,-54.83 v -4.19 c 0,-15.15 6.21,-28.63 18.64,-40.36 12.4,-11.73 28.99,-22.76 49.69,-33.11 20.67,-10.33 44.49,-20.39 71.41,-30.03 26.92,-9.64 55.53,-19.34 85.9,-28.97 38.62,-12.44 77.97,-27.249 118.03,-44.499 39.98,-17.25 75.88,-38.27 107.62,-63.141 31.74,-24.851 57.97,-55.23 78.67,-91.058 20.71,-35.973 31.08,-79.41 31.08,-130.473 v -4.109 c 0,-62.16 -10.71,-115.66 -32.09,-160.5 -21.44,-44.828 -51.43,-81.7 -90.06,-110.692 -38.65,-28.988 -83.84,-50.769 -135.58,-65.23 -51.79,-14.52 -107.35,-21.707 -166.68,-21.707"
         style="fill:#100f0d;fill-opacity:1;fill-rule:nonzero;stroke:none"
         id="path24" /><path
         d="m 9512.44,625.199 c 64.87,0 124.24,10.41 178.09,31.082 53.77,20.68 99.65,50.348 137.65,89.039 37.92,38.629 67.61,84.16 89.04,136.61 21.38,52.449 32.06,111.109 32.06,176 v 4.12 c 0,63.48 -10.68,122.14 -32.06,175.99 -21.43,53.77 -51.12,100.01 -89.04,138.7 -38,38.62 -83.88,68.58 -137.65,90.02 -53.85,21.37 -113.22,32.13 -178.09,32.13 H 9266.11 V 625.199 Z M 8947.3,1786.63 h 565.14 c 113.21,0 217.05,-18.3 311.62,-54.9 94.49,-36.6 175.93,-87.3 244.24,-152.11 68.4,-64.95 121.2,-141.14 158.4,-228.79 37.3,-87.65 55.9,-182.56 55.9,-284.66 v -4.12 c 0,-102.179 -18.6,-197.378 -55.9,-285.71 -37.2,-88.348 -90,-164.899 -158.4,-229.781 -68.31,-64.879 -149.75,-115.93 -244.24,-153.219 -94.57,-37.231 -198.41,-55.871 -311.62,-55.871 H 8947.3 V 1786.63"
         style="fill:#ec1d27;fill-opacity:1;fill-rule:nonzero;stroke:none"
         id="path26" /><path
         d="m 11081.7,583.781 c 45.5,0 85.9,7.969 121.1,23.828 35.2,15.852 65.3,37.641 90.1,65.219 24.8,27.594 43.8,59.711 56.9,96.242 13.1,36.602 19.7,75.571 19.7,116.981 v 4.187 c 0,41.352 -7,80.391 -20.7,116.912 -13.8,36.6 -33.9,69 -60.1,97.35 -26.2,28.22 -57.2,50.7 -93.1,67.26 -35.9,16.55 -75.3,24.87 -118,24.87 -45.5,0 -85.9,-7.96 -121.1,-23.82 -35.2,-15.93 -65.2,-37.64 -90.1,-65.23 -24.9,-27.59 -43.8,-59.71 -56.9,-96.24 -13.1,-36.602 -19.7,-75.57 -19.7,-116.981 v -4.121 c 0,-41.418 6.9,-80.449 20.7,-116.976 13.8,-36.602 33.8,-69.071 60,-97.293 26.3,-28.348 57,-50.77 92.2,-67.321 35.1,-16.546 74.8,-24.867 119,-24.867 z m -4.1,-271.179 c -85.6,0 -165,14.878 -238.1,44.546 -73.2,29.622 -136.3,70.34 -189.4,122.161 -53.1,51.75 -94.9,112.441 -125.3,182.14 -30.4,69.699 -45.5,144.563 -45.5,224.602 v 4.187 c 0,79.973 15.1,154.912 45.5,224.602 30.4,69.63 72.5,130.74 126.3,183.19 53.8,52.44 117.3,93.87 190.4,124.24 73.2,30.31 153.3,45.54 240.2,45.54 85.6,0 164.9,-14.88 238.1,-44.49 73.1,-29.75 136.3,-70.4 189.4,-122.15 53.1,-51.75 94.9,-112.5 125.3,-182.21 30.3,-69.69 45.5,-144.562 45.5,-224.601 v -4.121 c 0,-80.109 -15.2,-154.968 -45.5,-224.668 -30.4,-69.699 -72.5,-130.742 -126.3,-183.179 -53.8,-52.461 -117.4,-93.871 -190.5,-124.25 -73.1,-30.321 -153.1,-45.539 -240.1,-45.539"
         style="fill:#ec1d27;fill-opacity:1;fill-rule:nonzero;stroke:none"
         id="path28" /><path
         d="m 11913.9,1848.71 h 331.2 v -279.5 h -331.2 z M 11880.7,0 c -28.9,0 -53.5,1.05078 -73.4,3.16016 -20.1,2.00781 -41.1,5.16015 -63.2,9.26954 V 258.832 c 24.9,-4.191 47,-6.223 66.2,-6.223 33.2,0 60.1,9.641 80.8,28.993 20.7,19.339 31.1,52.449 31.1,99.296 V 1447.06 h 314.6 V 356.109 c 0,-122.847 -30,-212.871 -90,-270.1988 C 12086.8,28.7109 11998.1,0 11880.7,0"
         style="fill:#ec1d27;fill-opacity:1;fill-rule:nonzero;stroke:none"
         id="path30" /><path
         d="m 13081.5,583.781 c 45.5,0 85.9,7.969 121.1,23.828 35.2,15.852 65.2,37.641 90.1,65.219 24.8,27.594 43.8,59.711 56.9,96.242 13.1,36.602 19.6,75.571 19.6,116.981 v 4.187 c 0,41.352 -6.9,80.391 -20.7,116.912 -13.8,36.6 -33.8,69 -60,97.35 -26.2,28.22 -57.3,50.7 -93.2,67.26 -35.9,16.55 -75.2,24.87 -117.9,24.87 -45.6,0 -85.9,-7.96 -121.1,-23.82 -35.2,-15.93 -65.3,-37.64 -90.1,-65.23 -24.9,-27.59 -43.8,-59.71 -56.9,-96.24 -13.2,-36.602 -19.7,-75.57 -19.7,-116.981 v -4.121 c 0,-41.418 6.9,-80.449 20.7,-116.976 13.8,-36.602 33.8,-69.071 60,-97.293 26.3,-28.348 57,-50.77 92.2,-67.321 35.1,-16.546 74.8,-24.867 119,-24.867 z m -4.1,-271.179 c -85.7,0 -165,14.878 -238.1,44.546 -73.2,29.622 -136.3,70.34 -189.4,122.161 -53.2,51.75 -94.9,112.441 -125.3,182.14 -30.4,69.699 -45.5,144.563 -45.5,224.602 v 4.187 c 0,79.973 15.1,154.912 45.5,224.602 30.4,69.63 72.5,130.74 126.3,183.19 53.8,52.44 117.3,93.87 190.4,124.24 73.2,30.31 153.2,45.54 240.2,45.54 85.5,0 164.9,-14.88 238.1,-44.49 73.1,-29.75 136.2,-70.4 189.4,-122.15 53.1,-51.75 94.9,-112.5 125.3,-182.21 30.3,-69.69 45.5,-144.562 45.5,-224.601 v -4.121 c 0,-80.109 -15.2,-154.968 -45.5,-224.668 -30.4,-69.699 -72.5,-130.742 -126.4,-183.179 -53.8,-52.461 -117.3,-93.871 -190.4,-124.25 -73.2,-30.321 -153.2,-45.539 -240.1,-45.539"
         style="fill:#ec1d27;fill-opacity:1;fill-rule:nonzero;stroke:none"
         id="path32" /><path
         d="m 8857.46,4768.91 v -563.2 c -209.63,-58.52 -492.47,-127.61 -831.14,-181.66 -1012.17,-161.53 -1856.82,-82.35 -2372.85,0 -338.68,54.05 -621.51,123.14 -831.14,181.66 v 563.2 c 39.34,-40.55 90.49,-86.67 154.84,-131.12 79.13,-54.66 154.32,-90.3 214.91,-113.77 v 305.45 c 277.82,-147.01 868.36,-412 1659.96,-409.32 778.2,2.61 1358.92,262.58 1636.2,409.32 v -305.45 c 54.58,18.66 125.88,49.05 201.59,99.44 74.59,49.66 129.56,102.81 167.63,145.45"
         style="fill:#ec1d27;fill-opacity:1;fill-rule:nonzero;stroke:none"
         id="path34" /><path
         d="m 5721.48,2219.2 c 73.39,460.56 127.25,1048.02 74.44,1644.25 l -387.58,66.85 c 0,0 -45.83,-885.01 -252.56,-1711.1 h 565.7"
         style="fill:#ec1d27;fill-opacity:1;fill-rule:nonzero;stroke:none"
         id="path36" /><path
         d="m 8462.35,2219.2 c -206.73,826.09 -252.56,1711.1 -252.56,1711.1 l -387.81,-64.65 c -52.86,-596.76 1.19,-1185.21 74.74,-1646.45 h 565.63"
         style="fill:#ec1d27;fill-opacity:1;fill-rule:nonzero;stroke:none"
         id="path38" /><path
         d="m 5529.31,3241.07 h -706.98 v 382 h 706.98 v -382"
         style="fill:#ec1d27;fill-opacity:1;fill-rule:nonzero;stroke:none"
         id="path40" /><path
         d="m 8795.81,3241.07 h -706.98 v 382 h 706.98 v -382"
         style="fill:#ec1d27;fill-opacity:1;fill-rule:nonzero;stroke:none"
         id="path42" /><path
         d="m 7923.92,3317.47 h -2167.9 v 219.66 h 2167.9 v -219.66"
         style="fill:#ec1d27;fill-opacity:1;fill-rule:nonzero;stroke:none"
         id="path44" /><path
         d="m 6936.38,3489.38 h -216.47 v 318.33 h 216.47 v -318.33"
         style="fill:#ec1d27;fill-opacity:1;fill-rule:nonzero;stroke:none"
         id="path46" /><path
         d="M 7605.66,5146.95 V 4755.7 c -170.9,-66.34 -454.66,-152.46 -814,-152.48 -359.47,-0.03 -643.32,86.12 -814.26,152.48 0,130.42 0,260.83 0,391.25 l 814.13,-238.28 814.13,238.28"
         style="fill:#ec1d27;fill-opacity:1;fill-rule:nonzero;stroke:none"
         id="path48" /><path
         d="M 8300.65,5527.03 6791.53,5022.08 5282.41,5527.03 6791.53,5924.07 8300.65,5527.03"
         style="fill:#ec1d27;fill-opacity:1;fill-rule:nonzero;stroke:none"
         id="path50" /><path
         d="m 8023.7,5119.28 h -98.69 v 324.7 h 98.69 v -324.7"
         style="fill:#ec1d27;fill-opacity:1;fill-rule:nonzero;stroke:none"
         id="path52" /></g></g></svg>
