<?xml version="1.0" encoding="UTF-8" standalone="no"?>
<svg
   xmlns:dc="http://purl.org/dc/elements/1.1/"
   xmlns:cc="http://creativecommons.org/ns#"
   xmlns:rdf="http://www.w3.org/1999/02/22-rdf-syntax-ns#"
   xmlns:svg="http://www.w3.org/2000/svg"
   xmlns="http://www.w3.org/2000/svg"
   xmlns:sodipodi="http://sodipodi.sourceforge.net/DTD/sodipodi-0.dtd"
   xmlns:inkscape="http://www.inkscape.org/namespaces/inkscape"
   version="1.1"
   id="svg2"
   xml:space="preserve"
   width="2103.3999"
   height="422.79999"
   viewBox="0 0 2103.3999 422.79999"
   sodipodi:docname="78737_DevOps Dojo_FLAT_DT_02.eps"><metadata
     id="metadata8"><rdf:RDF><cc:Work
         rdf:about=""><dc:format>image/svg+xml</dc:format><dc:type
           rdf:resource="http://purl.org/dc/dcmitype/StillImage" /></cc:Work></rdf:RDF></metadata><defs
     id="defs6" /><sodipodi:namedview
     pagecolor="#ffffff"
     bordercolor="#666666"
     borderopacity="1"
     objecttolerance="10"
     gridtolerance="10"
     guidetolerance="10"
     inkscape:pageopacity="0"
     inkscape:pageshadow="2"
     inkscape:window-width="640"
     inkscape:window-height="480"
     id="namedview4" /><g
     id="g10"
     inkscape:groupmode="layer"
     inkscape:label="ink_ext_XXXXXX"
     transform="matrix(1.3333333,0,0,-1.3333333,0,422.8)"><g
       id="g12"
       transform="scale(0.1)"><path
         d="m 4550.78,904.82 c 55.51,0 106.32,8.899 152.37,26.602 46.09,17.687 85.33,43.09 117.85,76.198 32.46,33.07 57.86,72.03 76.18,116.93 18.29,44.89 27.47,95.1 27.47,150.63 v 3.53 c 0,54.33 -9.18,104.54 -27.47,150.63 -18.32,46.03 -43.72,85.6 -76.18,118.72 -32.52,33.05 -71.76,58.69 -117.85,77.05 -46.05,18.28 -96.86,27.49 -152.37,27.49 H 4339.93 V 904.82 Z m -483.72,994.05 h 483.72 c 96.84,0 185.76,-15.66 266.66,-46.98 80.9,-31.33 150.64,-74.72 209.1,-130.19 58.46,-55.6 103.65,-120.8 135.53,-195.82 31.89,-75.02 47.85,-156.26 47.85,-243.64 v -3.53 c 0,-87.45 -15.96,-168.93 -47.85,-244.54 C 5130.19,958.551 5085,893.039 5026.54,837.512 4968.08,781.98 4898.34,738.289 4817.44,706.359 4736.54,674.5 4647.62,658.551 4550.78,658.551 H 4067.06 V 1898.87"
         style="fill:#100f0d;fill-opacity:1;fill-rule:nonzero;stroke:none"
         id="path14" /><path
         d="m 6048.03,1207.82 c -8.29,60.25 -29.56,108.96 -63.78,146.2 -34.28,37.18 -79.74,55.78 -136.43,55.78 -56.73,0 -102.52,-18.29 -137.34,-54.88 -34.85,-36.64 -57.6,-85.65 -68.24,-147.1 z M 5874.38,637.262 c -70.89,0 -136.73,11.84 -197.56,35.449 -60.88,23.609 -113.42,57.258 -157.71,101.019 -44.29,43.692 -78.84,95.34 -103.65,155.059 -24.81,59.59 -37.21,126.061 -37.21,199.281 v 3.59 c 0,67.31 11.51,131.09 34.55,191.34 23.04,60.25 55.21,112.8 96.57,157.69 41.33,44.88 90.64,80.34 147.94,106.34 57.3,25.94 120.77,38.97 190.51,38.97 79.11,0 147.63,-14.17 205.52,-42.56 57.86,-28.33 106.02,-66.41 144.39,-114.23 38.38,-47.88 66.74,-102.81 85.07,-164.8 18.28,-62.05 27.46,-126.72 27.46,-194.03 0,-10.64 -0.3,-21.87 -0.9,-33.65 -0.6,-11.83 -1.49,-24.27 -2.66,-37.25 h -660.9 c 13,-61.441 39.87,-107.769 80.64,-139.089 40.74,-31.321 91.25,-46.922 151.47,-46.922 44.89,0 85.06,7.652 120.51,23.011 35.44,15.372 72.03,40.168 109.86,74.418 L 6262.41,814.5 c -44.9,-55.59 -99.23,-98.988 -163.01,-130.25 -63.77,-31.328 -138.82,-46.988 -225.02,-46.988"
         style="fill:#100f0d;fill-opacity:1;fill-rule:nonzero;stroke:none"
         id="path16" /><path
         d="m 6425.41,1608.24 h 285.28 l 212.62,-636.049 214.38,636.049 h 279.96 L 7043.79,651.43 h -244.52 l -373.86,956.81"
         style="fill:#100f0d;fill-opacity:1;fill-rule:nonzero;stroke:none"
         id="path18" /><path
         d="m 8207.93,888.91 c 54.31,0 104.52,9.988 150.61,30.078 46.06,20.082 85.33,47.871 117.81,83.322 32.49,35.44 57.86,76.45 76.22,123.13 18.28,46.63 27.43,96.54 27.43,149.74 v 3.53 c 0,53.14 -9.15,103.35 -27.43,150.63 -18.36,47.23 -44.32,88.58 -77.98,124.03 -33.66,35.39 -73.52,63.49 -119.61,84.17 -46.05,20.62 -96.3,30.96 -150.6,30.96 -55.53,0 -106.04,-10.05 -151.5,-30.13 -45.49,-20.08 -84.46,-47.82 -116.95,-83.26 -32.48,-35.45 -57.9,-76.52 -76.19,-123.14 -18.32,-46.68 -27.46,-96.6 -27.46,-149.73 v -3.53 c 0,-53.14 9.14,-103.41 27.46,-150.64 18.29,-47.22 44.3,-88.59 77.98,-124.02 33.66,-35.46 73.23,-63.491 118.71,-84.171 45.46,-20.68 95.94,-30.969 151.5,-30.969 z m -3.55,-251.648 c -95.67,0 -183.69,16.859 -264.03,50.508 -80.34,33.66 -149.7,79.152 -208.2,136.468 -58.46,57.262 -103.95,124.571 -136.43,201.972 -32.49,77.36 -48.72,160.39 -48.72,248.97 v 3.53 c 0,88.59 16.53,171.55 49.61,248.96 33.06,77.35 78.85,145.25 137.33,203.77 58.46,58.46 128.17,104.54 209.08,138.21 80.9,33.65 169.22,50.5 264.91,50.5 95.67,0 183.67,-16.85 264,-50.5 80.31,-33.67 149.73,-79.15 208.19,-136.47 58.46,-57.27 103.96,-124.63 136.44,-201.98 32.49,-77.41 48.71,-160.38 48.71,-248.96 v -3.53 c 0,-88.59 -16.55,-171.62 -49.6,-248.96 -33.09,-77.352 -78.84,-145.32 -137.3,-203.77 -58.5,-58.46 -128.19,-104.55 -209.1,-138.21 -80.94,-33.649 -169.22,-50.508 -264.89,-50.508"
         style="fill:#100f0d;fill-opacity:1;fill-rule:nonzero;stroke:none"
         id="path20" /><path
         d="m 9575.79,869.371 c 31.89,0 61.72,6.211 89.49,18.649 27.73,12.371 52.27,30.128 73.55,53.152 21.25,23 38.07,50.5 50.48,82.358 12.4,31.92 18.61,67.97 18.61,108.13 v 3.53 c 0,38.98 -6.21,74.66 -18.61,107.17 -12.41,32.52 -29.23,60.26 -50.48,83.27 -21.28,23.08 -45.82,40.77 -73.55,53.2 -27.77,12.37 -57.6,18.59 -89.49,18.59 -31.89,0 -61.72,-6.22 -89.48,-18.59 -27.76,-12.43 -51.97,-30.12 -72.62,-53.2 -20.69,-23.01 -37.22,-50.75 -49.62,-83.27 -12.4,-32.51 -18.62,-68.19 -18.62,-107.17 v -3.53 c 0,-39.03 6.22,-74.72 18.62,-107.24 12.4,-32.51 28.93,-60.248 49.62,-83.248 20.65,-23.024 44.86,-40.781 72.62,-53.152 27.76,-12.438 57.59,-18.649 89.48,-18.649 z M 9079.66,1608.24 H 9349 v -136.4 c 33.06,44.89 72.93,81.78 119.62,110.77 46.62,28.92 105.41,43.39 176.27,43.39 55.53,0 109.27,-10.64 161.24,-31.92 51.98,-21.22 98.07,-52.84 138.23,-94.8 40.15,-41.91 72.34,-93.31 96.54,-154.1 24.2,-60.91 36.3,-130.85 36.3,-209.99 v -3.53 c 0,-79.2 -12.1,-149.14 -36.3,-209.988 -24.2,-60.852 -56.1,-112.25 -95.67,-154.152 -39.57,-41.969 -85.36,-73.532 -137.31,-94.809 -51.99,-21.281 -106.3,-31.859 -163.03,-31.859 -72.06,0 -131.41,14.168 -178.07,42.5 -46.68,28.328 -85.92,61.386 -117.82,99.226 V 375.039 H 9079.66 V 1608.24"
         style="fill:#100f0d;fill-opacity:1;fill-rule:nonzero;stroke:none"
         id="path22" /><path
         d="m 10608.8,640.852 c -67.3,0 -136.2,11.48 -206.4,34.546 -70.3,23.012 -137.3,59.364 -201.2,108.973 l 115.2,177.168 c 52,-37.84 103.7,-66.168 155.1,-85.059 51.4,-18.878 99.5,-28.332 144.4,-28.332 39,0 67.6,6.461 85.9,19.493 18.3,12.968 27.5,30.121 27.5,51.347 v 3.582 c 0,14.16 -5.3,26.539 -16,37.18 -10.6,10.641 -25.1,19.781 -43.4,27.5 -18.3,7.648 -39.3,15.06 -62.9,22.11 -23.6,7.12 -48.4,14.77 -74.4,23.07 -33.1,9.45 -66.4,20.93 -100.1,34.55 -33.7,13.58 -64.1,31.27 -91.3,53.14 -27.2,21.82 -49.3,48.72 -66.4,80.64 -17.2,31.87 -25.7,70.83 -25.7,116.92 v 3.53 c 0,48.41 9.1,91.27 27.5,128.45 18.3,37.24 43.1,68.81 74.4,94.81 31.3,26 67.9,45.48 109.8,58.51 42,12.98 87.1,19.5 135.6,19.5 60.2,0 121.4,-9.75 183.4,-29.3 62,-19.48 119,-46.32 171,-80.57 L 10848,1326.53 c -47.3,27.2 -93.3,48.71 -138.2,64.67 -44.9,15.97 -84.5,23.91 -118.7,23.91 -33.1,0 -57.9,-6.15 -74.5,-18.58 -16.5,-12.38 -24.8,-28.04 -24.8,-46.93 v -3.59 c 0,-12.97 5.4,-24.5 16,-34.54 10.6,-10.05 24.8,-19.49 42.5,-28.34 17.7,-8.84 38.1,-17.45 61.2,-25.7 23,-8.25 47.5,-16.56 73.5,-24.8 33,-10.65 66.7,-23.32 101,-38.09 34.2,-14.76 64.9,-32.75 92.1,-54.04 27.2,-21.27 49.6,-47.27 67.3,-77.94 17.8,-30.78 26.6,-67.958 26.6,-111.662 v -3.519 c 0,-53.199 -9.1,-98.988 -27.4,-137.367 -18.4,-38.371 -44,-69.934 -77.1,-94.742 -33.1,-24.809 -71.8,-43.45 -116.1,-55.829 -44.3,-12.429 -91.8,-18.589 -142.6,-18.589"
         style="fill:#100f0d;fill-opacity:1;fill-rule:nonzero;stroke:none"
         id="path24" /><path
         d="m 12208.7,904.82 c 55.6,0 106.4,8.899 152.5,26.602 46,17.687 85.2,43.09 117.8,76.198 32.4,33.07 57.8,72.03 76.2,116.93 18.3,44.89 27.4,95.1 27.4,150.63 v 3.53 c 0,54.33 -9.1,104.54 -27.4,150.63 -18.4,46.03 -43.8,85.6 -76.2,118.72 -32.6,33.05 -71.8,58.69 -117.8,77.05 -46.1,18.28 -96.9,27.49 -152.5,27.49 h -210.8 V 904.82 Z m -483.7,994.05 h 483.7 c 96.9,0 185.8,-15.66 266.7,-46.98 80.9,-31.33 150.6,-74.72 209.1,-130.19 58.5,-55.6 103.7,-120.8 135.5,-195.82 32,-75.02 47.9,-156.26 47.9,-243.64 v -3.53 c 0,-87.45 -15.9,-168.93 -47.9,-244.54 -31.8,-75.619 -77,-141.131 -135.5,-196.658 -58.5,-55.532 -128.2,-99.223 -209.1,-131.153 -80.9,-31.859 -169.8,-47.808 -266.7,-47.808 H 11725 V 1898.87"
         style="fill:#ec1d27;fill-opacity:1;fill-rule:nonzero;stroke:none"
         id="path26" /><path
         d="m 13551.9,869.371 c 38.9,0 73.5,6.82 103.6,20.379 30.1,13.57 55.8,32.219 77.1,55.832 21.2,23.609 37.5,51.109 48.7,82.368 11.2,31.32 16.8,64.68 16.8,100.12 v 3.59 c 0,35.39 -5.9,68.8 -17.7,100.06 -11.8,31.33 -28.9,59.06 -51.4,83.33 -22.4,24.15 -49,43.39 -79.7,57.56 -30.7,14.17 -64.4,21.29 -101,21.29 -38.9,0 -73.5,-6.82 -103.6,-20.39 -30.1,-13.63 -55.8,-32.21 -77.1,-55.83 -21.3,-23.61 -37.5,-51.11 -48.7,-82.37 -11.3,-31.32 -16.9,-64.68 -16.9,-100.12 v -3.53 c 0,-35.45 5.9,-68.86 17.8,-100.12 11.7,-31.33 28.9,-59.118 51.3,-83.27 22.5,-24.27 48.8,-43.45 78.9,-57.622 30.1,-14.168 64,-21.277 101.9,-21.277 z m -3.6,-232.109 c -73.2,0 -141.1,12.738 -203.7,38.136 -62.7,25.34 -116.7,60.192 -162.1,104.551 -45.5,44.289 -81.3,96.242 -107.3,155.891 -26,59.66 -39,123.73 -39,192.23 v 3.59 c 0,68.44 13,132.59 39,192.24 26,59.59 62.1,111.9 108.1,156.79 46.1,44.88 100.4,80.34 163,106.34 62.7,25.94 131.1,38.97 205.6,38.97 73.2,0 141.1,-12.73 203.7,-38.08 62.6,-25.46 116.7,-60.25 162.2,-104.54 45.4,-44.3 81.2,-96.3 107.2,-155.96 25.9,-59.65 39,-123.73 39,-192.23 v -3.53 c 0,-68.56 -13.1,-132.64 -39,-192.301 -26,-59.648 -62.1,-111.89 -108.1,-156.781 -46.1,-44.887 -100.5,-80.34 -163.1,-106.34 -62.5,-25.949 -131,-38.976 -205.5,-38.976"
         style="fill:#ec1d27;fill-opacity:1;fill-rule:nonzero;stroke:none"
         id="path28" /><path
         d="m 14264.1,1952.01 h 283.5 v -239.22 h -283.5 z m -28.4,-1582.299 c -24.8,0 -45.7,0.898 -62.8,2.699 -17.2,1.719 -35.2,4.422 -54.1,7.942 v 210.886 c 21.3,-3.59 40.2,-5.328 56.7,-5.328 28.4,0 51.4,8.262 69.2,24.809 17.6,16.562 26.5,44.902 26.5,85 v 912.521 h 269.3 V 674.5 c 0,-105.141 -25.7,-182.191 -77.1,-231.27 -51.3,-48.949 -127.2,-73.519 -227.7,-73.519"
         style="fill:#ec1d27;fill-opacity:1;fill-rule:nonzero;stroke:none"
         id="path30" /><path
         d="m 15263.5,869.371 c 38.9,0 73.5,6.82 103.6,20.379 30.1,13.57 55.8,32.219 77.1,55.832 21.2,23.609 37.5,51.109 48.7,82.368 11.2,31.32 16.8,64.68 16.8,100.12 v 3.59 c 0,35.39 -5.9,68.8 -17.7,100.06 -11.8,31.33 -29,59.06 -51.4,83.33 -22.4,24.15 -49,43.39 -79.7,57.56 -30.7,14.17 -64.4,21.29 -101,21.29 -38.9,0 -73.5,-6.82 -103.6,-20.39 -30.1,-13.63 -55.8,-32.21 -77.1,-55.83 -21.3,-23.61 -37.5,-51.11 -48.7,-82.37 -11.3,-31.32 -16.9,-64.68 -16.9,-100.12 v -3.53 c 0,-35.45 5.9,-68.86 17.8,-100.12 11.7,-31.33 28.9,-59.118 51.3,-83.27 22.5,-24.27 48.8,-43.45 78.9,-57.622 30.1,-14.168 64,-21.277 101.9,-21.277 z m -3.6,-232.109 c -73.3,0 -141.2,12.738 -203.7,38.136 -62.7,25.34 -116.7,60.192 -162.1,104.551 -45.5,44.289 -81.3,96.242 -107.3,155.891 -26,59.66 -39,123.73 -39,192.23 v 3.59 c 0,68.44 13,132.59 39,192.24 26,59.59 62.1,111.9 108.1,156.79 46.1,44.88 100.4,80.34 163,106.34 62.6,25.94 131.1,38.97 205.6,38.97 73.2,0 141.1,-12.73 203.7,-38.08 62.6,-25.46 116.7,-60.25 162.1,-104.54 45.5,-44.3 81.3,-96.3 107.3,-155.96 25.9,-59.65 38.9,-123.73 38.9,-192.23 v -3.53 c 0,-68.56 -13,-132.64 -38.9,-192.301 -26,-59.648 -62.1,-111.89 -108.2,-156.781 -46,-44.887 -100.4,-80.34 -163,-106.34 -62.5,-25.949 -131,-38.976 -205.5,-38.976"
         style="fill:#ec1d27;fill-opacity:1;fill-rule:nonzero;stroke:none"
         id="path32" /><path
         d="m 3453.66,2182.3 v -482.05 c -179.42,-50.08 -421.5,-109.22 -711.37,-155.48 -866.32,-138.26 -1589.25,-70.48 -2030.919,0 C 421.5,1591.03 179.426,1650.17 0,1700.25 v 482.05 c 33.6719,-34.72 77.4531,-74.18 132.535,-112.23 67.723,-46.78 132.078,-77.29 183.938,-97.38 v 261.44 C 554.254,2108.3 1059.7,1881.5 1737.22,1883.79 c 666.06,2.24 1163.1,224.74 1400.42,350.34 v -261.44 c 46.72,15.97 107.75,41.99 172.54,85.12 63.84,42.5 110.89,87.98 143.48,124.49"
         style="fill:#ec1d27;fill-opacity:1;fill-rule:nonzero;stroke:none"
         id="path34" /><path
         d="m 769.582,0 c 62.813,394.199 108.91,897 63.715,1407.31 l -331.727,57.22 c 0,0 -39.226,-757.479 -216.168,-1464.53 h 484.18"
         style="fill:#ec1d27;fill-opacity:1;fill-rule:nonzero;stroke:none"
         id="path36" /><path
         d="M 3115.48,0 C 2938.54,707.051 2899.32,1464.53 2899.32,1464.53 L 2567.39,1409.2 C 2522.15,898.43 2568.41,394.781 2631.36,0 h 484.12"
         style="fill:#ec1d27;fill-opacity:1;fill-rule:nonzero;stroke:none"
         id="path38" /><path
         d="M 605.105,874.621 H 0 V 1201.58 H 605.105 V 874.621"
         style="fill:#ec1d27;fill-opacity:1;fill-rule:nonzero;stroke:none"
         id="path40" /><path
         d="m 3400.89,874.621 h -605.1 v 326.959 h 605.1 V 874.621"
         style="fill:#ec1d27;fill-opacity:1;fill-rule:nonzero;stroke:none"
         id="path42" /><path
         d="M 2654.64,940.012 H 799.145 V 1128.01 H 2654.64 V 940.012"
         style="fill:#ec1d27;fill-opacity:1;fill-rule:nonzero;stroke:none"
         id="path44" /><path
         d="m 1809.41,1087.14 h -185.28 v 272.47 h 185.28 v -272.47"
         style="fill:#ec1d27;fill-opacity:1;fill-rule:nonzero;stroke:none"
         id="path46" /><path
         d="m 2382.25,2505.85 v -334.87 c -146.28,-56.78 -389.15,-130.48 -696.7,-130.5 -307.68,-0.02 -550.62,73.71 -696.925,130.5 0,111.63 0,223.25 0,334.87 l 696.815,-203.93 696.81,203.93"
         style="fill:#ec1d27;fill-opacity:1;fill-rule:nonzero;stroke:none"
         id="path48" /><path
         d="M 2977.09,2831.16 1685.44,2398.98 393.785,2831.16 1685.44,3170.99 2977.09,2831.16"
         style="fill:#ec1d27;fill-opacity:1;fill-rule:nonzero;stroke:none"
         id="path50" /><path
         d="m 2740.04,2482.18 h -84.46 v 277.91 h 84.46 v -277.91"
         style="fill:#ec1d27;fill-opacity:1;fill-rule:nonzero;stroke:none"
         id="path52" /></g></g></svg>
